<?xml version="1.0" encoding="UTF-8" standalone="no"?>
<!-- Created with Inkscape (http://www.inkscape.org/) -->

<svg
   xmlns:dc="http://purl.org/dc/elements/1.1/"
   xmlns:cc="http://creativecommons.org/ns#"
   xmlns:rdf="http://www.w3.org/1999/02/22-rdf-syntax-ns#"
   xmlns:svg="http://www.w3.org/2000/svg"
   xmlns="http://www.w3.org/2000/svg"
   xmlns:sodipodi="http://sodipodi.sourceforge.net/DTD/sodipodi-0.dtd"
   xmlns:inkscape="http://www.inkscape.org/namespaces/inkscape"
   width="177.16534"
   height="70.866142"
   id="svg3157"
   version="1.1"
   inkscape:version="0.48.1 r9760"
   sodipodi:docname="Logo Blue.svg">
  <defs
     id="defs3159" />
  <sodipodi:namedview
     inkscape:document-units="mm"
     pagecolor="#ffffff"
     bordercolor="#666666"
     borderopacity="1.0"
     inkscape:pageopacity="0.0"
     inkscape:pageshadow="2"
     inkscape:zoom="6.9465337"
     inkscape:cx="90.206881"
     inkscape:cy="5.5318379"
     inkscape:current-layer="layer1"
     id="namedview3161"
     showgrid="false"
     inkscape:window-width="1836"
     inkscape:window-height="1239"
     inkscape:window-x="25"
     inkscape:window-y="25"
     inkscape:window-maximized="0"
     units="mm"
     showguides="true"
     inkscape:guide-bbox="true" />
  <metadata
     id="metadata3163">
    <rdf:RDF>
      <cc:Work
         rdf:about="">
        <dc:format>image/svg+xml</dc:format>
        <dc:type
           rdf:resource="http://purl.org/dc/dcmitype/StillImage" />
        <dc:title></dc:title>
      </cc:Work>
    </rdf:RDF>
  </metadata>
  <g
     inkscape:label="Layer 1"
     inkscape:groupmode="layer"
     id="layer1"
     transform="translate(0,-673.22834)">
    <path
       style="fill:#ececec;fill-opacity:1;stroke:#3771c8;stroke-width:2.83464575;stroke-linecap:round;stroke-miterlimit:4;stroke-opacity:1;stroke-dasharray:none"
       d="m 14.185683,693.19189 21.7152,0 c 2.651,0 4.7853,2.2214 4.7853,4.9808 l 0,22.6031 c 0,2.7594 -2.1343,4.9809 -4.7853,4.9809 l -21.7152,0 c -2.6511,0 -4.7853001,-2.2215 -4.7853001,-4.9809 l 0,-22.6031 c 0,-2.7594 2.1342001,-4.9808 4.7853001,-4.9808 z"
       id="rect2985-5"
       inkscape:connector-curvature="0" />
    <path
       style="fill:#ffffff;fill-opacity:1;stroke:#3771c8;stroke-width:2.83464575;stroke-linecap:round;stroke-miterlimit:4;stroke-opacity:1;stroke-dasharray:none"
       d="m 18.054783,701.54739 11.2058,0 c 1.8384,0 3.3183,1.4639 3.3183,3.2823 l 0,17.6288 c 0,1.8184 -1.5472,3.2823 -3.469,3.2823 l -11.2058,0 c -1.8384,0 -3.3184,-1.4639 -3.3184,-3.2823 l 0,-17.6288 c 0,-1.8184 1.5472,-3.2823 3.4691,-3.2823 z"
       id="rect2985-1-1"
       inkscape:connector-curvature="0"
       sodipodi:nodetypes="sssssssss" />
    <g
       style="font-size:40px;font-style:normal;font-weight:normal;line-height:125%;letter-spacing:0px;word-spacing:0px;fill:#999999;fill-opacity:1;stroke:none;font-family:Sans"
       id="text3831-7"
       transform="translate(-96.585117,39.12093)">
      <path
         d="m 150.9095,679.5835 c -1e-5,0.53385 -0.18006,0.98063 -0.54016,1.34033 -0.36011,0.3597 -0.80669,0.53955 -1.33972,0.53955 -0.53305,0 -0.98633,-0.17985 -1.35987,-0.53955 -0.37353,-0.3597 -0.5603,-0.80648 -0.5603,-1.34033 l 0,-16.11939 c 0,-0.66648 0.13997,-1.23981 0.41992,-1.71997 0.27995,-0.48012 0.65328,-0.8736 1.12,-1.18042 0.46671,-0.30678 1.00016,-0.54685 1.60034,-0.72021 0.60017,-0.17332 1.21358,-0.29987 1.84021,-0.37964 0.62662,-0.0797 1.23982,-0.12632 1.8396,-0.13977 0.59976,-0.0134 1.12629,-0.0201 1.57959,-0.0201 1.12059,2e-5 2.18077,0.18658 3.18054,0.55969 0.99974,0.37315 1.87966,0.89988 2.63977,1.5802 0.76008,0.68036 1.36676,1.49375 1.82007,2.44018 0.45327,0.94647 0.67991,1.99302 0.67993,3.13965 l 0,12.48047 c -2e-5,0.53304 -0.18007,0.98633 -0.54016,1.35986 -0.36012,0.37354 -0.8067,0.56031 -1.33972,0.56031 -0.50702,0 -0.94037,-0.18677 -1.30005,-0.56031 -0.35972,-0.37353 -0.53957,-0.82682 -0.53955,-1.35986 l 0,-12.48047 c -2e-5,-0.66649 -0.16013,-1.25303 -0.48035,-1.75964 -0.32024,-0.50658 -0.72023,-0.9265 -1.19995,-1.25977 -0.47975,-0.33323 -1.03293,-0.58002 -1.65954,-0.74035 -0.62664,-0.1603 -1.26019,-0.24046 -1.90064,-0.24048 -0.34669,2e-5 -0.71331,0.0134 -1.09985,0.0403 -0.38657,0.0269 -0.7599,0.067 -1.12,0.12024 -0.36011,0.0533 -0.69357,0.0999 -1.00036,0.13977 -0.30681,0.0399 -0.5534,0.0867 -0.73975,0.14038 z"
         style="font-variant:normal;font-stretch:normal;fill:#999999;font-family:VDS;-inkscape-font-specification:VDS"
         id="path3004-1"
         inkscape:connector-curvature="0" />
      <path
         d="m 167.98836,667.94409 c 0,-1.17349 0.21993,-2.27354 0.65979,-3.30017 0.43985,-1.02659 1.03983,-1.91323 1.79992,-2.65991 0.76009,-0.74664 1.64673,-1.33991 2.65992,-1.77979 1.01317,-0.43983 2.09309,-0.65976 3.23974,-0.65979 1.14664,3e-5 2.23347,0.21996 3.2605,0.65979 1.027,0.43988 1.92035,1.03315 2.68005,1.77979 0.75967,0.74668 1.35293,1.63332 1.77979,2.65991 0.42682,1.02663 0.64024,2.12668 0.64026,3.30017 l 0,5.2002 c -2e-5,1.14665 -0.21344,2.23328 -0.64026,3.25988 -0.42686,1.02662 -1.02012,1.91997 -1.77979,2.68006 -0.7597,0.76009 -1.65305,1.36007 -2.68005,1.79993 -1.02703,0.43986 -2.11386,0.65979 -3.2605,0.65979 -1.14665,0 -2.22657,-0.21993 -3.23974,-0.65979 -1.01319,-0.43986 -1.89983,-1.03984 -2.65992,-1.79993 -0.76009,-0.76009 -1.36007,-1.65344 -1.79992,-2.68006 -0.43986,-1.0266 -0.65979,-2.11323 -0.65979,-3.25988 z m 3.75976,5.2002 c 0,0.63965 0.12003,1.23942 0.36011,1.79931 0.24007,0.55991 0.56681,1.05327 0.98023,1.48011 0.4134,0.42684 0.90005,0.7603 1.45996,1.00036 0.55988,0.24008 1.15965,0.36011 1.79931,0.36011 0.6136,0 1.19384,-0.12003 1.74073,-0.36011 0.54686,-0.24006 1.04023,-0.57352 1.4801,-1.00036 0.43984,-0.42684 0.78652,-0.9202 1.04004,-1.48011 0.25348,-0.55989 0.38023,-1.15966 0.38025,-1.79931 l 0,-5.24048 c -2e-5,-0.66649 -0.12677,-1.2864 -0.38025,-1.85974 -0.25352,-0.57331 -0.58697,-1.06668 -1.00037,-1.48011 -0.41342,-0.41339 -0.90008,-0.7267 -1.45996,-0.93994 -0.55991,-0.21319 -1.16009,-0.3198 -1.80054,-0.31982 -0.6128,2e-5 -1.19263,0.10663 -1.7395,0.31982 -0.54688,0.21324 -1.03354,0.52655 -1.45996,0.93994 -0.42644,0.41343 -0.7664,0.9068 -1.0199,1.48011 -0.2535,0.57334 -0.38025,1.20668 -0.38025,1.90002 z"
         style="font-variant:normal;font-stretch:normal;fill:#999999;font-family:VDS;-inkscape-font-specification:VDS"
         id="path3006-1"
         inkscape:connector-curvature="0" />
      <path
         d="m 188.70979,654.42358 c 0,-0.53301 0.18005,-0.97958 0.54016,-1.33972 0.36011,-0.36008 0.80668,-0.54013 1.33973,-0.54016 0.50699,3e-5 0.94726,0.18008 1.3208,0.54016 0.37353,0.36014 0.56029,0.80671 0.5603,1.33972 l 0,5 4.59961,0 c 0.53303,3e-5 0.9796,0.18008 1.33972,0.54017 0.3601,0.36012 0.54015,0.82012 0.54016,1.38 -1e-5,0.50702 -0.18006,0.94037 -0.54016,1.30005 -0.36012,0.35972 -0.80669,0.53957 -1.33972,0.53955 l -4.59961,0 0,10.04028 c -1e-5,0.64047 0.11983,1.23394 0.3595,1.7804 0.23965,0.54647 0.56619,1.02641 0.97961,1.43982 0.4134,0.41341 0.90677,0.74016 1.4801,0.98022 0.57332,0.24008 1.18021,0.36011 1.82068,0.36011 0.50618,0 0.93932,0.18657 1.29944,0.55969 0.3601,0.37313 0.54015,0.82662 0.54016,1.36048 -1e-5,0.50618 -0.18678,0.93933 -0.5603,1.29943 -0.37355,0.36011 -0.81341,0.54017 -1.31958,0.54017 -1.17351,0 -2.26034,-0.21993 -3.2605,-0.65979 -1.00017,-0.43986 -1.88009,-1.03984 -2.63977,-1.79993 -0.75969,-0.76009 -1.35966,-1.64022 -1.79993,-2.64038 -0.44027,-1.00016 -0.6604,-2.07356 -0.6604,-3.22022 z"
         style="font-variant:normal;font-stretch:normal;fill:#999999;font-family:VDS;-inkscape-font-specification:VDS"
         id="path3008-5"
         inkscape:connector-curvature="0" />
      <path
         d="m 215.26375,667.06396 c -2e-5,-0.69334 -0.1467,-1.2866 -0.44007,-1.77978 -0.29339,-0.49315 -0.67343,-0.90656 -1.14013,-1.24023 -0.46673,-0.33365 -0.99326,-0.58043 -1.57959,-0.74036 -0.58636,-0.15989 -1.18633,-0.23985 -1.79993,-0.23987 -0.64047,2e-5 -1.36068,0.0334 -2.16064,0.1001 -0.79998,0.0667 -1.49293,0.18027 -2.07886,0.34057 l 0,13.80005 c 0.18635,0.10662 0.44616,0.18657 0.77942,0.23987 0.33324,0.0533 0.69315,0.0932 1.07971,0.11963 0.38655,0.0264 0.77331,0.0464 1.16028,0.0598 0.38695,0.0134 0.75377,0.0202 1.10046,0.0202 0.71939,0 1.39241,-0.0867 2.01905,-0.26001 0.62661,-0.17334 1.16677,-0.42663 1.62048,-0.75989 0.45368,-0.33325 0.80707,-0.74666 1.06018,-1.24024 0.25308,-0.49356 0.37962,-1.0736 0.37964,-1.74011 z m 3.75976,6.67969 c -2e-5,1.04005 -0.19329,2.02678 -0.57983,2.96021 -0.38657,0.93343 -0.96641,1.76005 -1.7395,2.47986 -0.77313,0.71981 -1.73972,1.28641 -2.89978,1.69982 -1.16009,0.41342 -2.51364,0.62012 -4.06067,0.62012 -1.0669,0 -2.2933,-0.13305 -3.6792,-0.39917 l 0,5.31983 c -1e-5,0.53303 -0.18006,0.9796 -0.54016,1.33972 -0.36011,0.3601 -0.79367,0.54015 -1.30066,0.54016 -0.53305,-1e-5 -0.98633,-0.17335 -1.35986,-0.52002 -0.37354,-0.34669 -0.56031,-0.78695 -0.56031,-1.3208 l 0,-22.95899 c 0,-1.01397 0.3068,-1.80763 0.92041,-2.38098 0.61361,-0.5733 1.35376,-0.99322 2.22046,-1.25976 0.8667,-0.2665 1.77998,-0.42641 2.73987,-0.47974 0.95987,-0.0533 1.79992,-0.0799 2.52014,-0.08 1.09293,2e-5 2.13947,0.18658 3.13965,0.55969 1.00015,0.37315 1.88678,0.89988 2.65991,1.5802 0.7731,0.68036 1.3863,1.49375 1.8396,2.44018 0.45327,0.94647 0.67991,2.00645 0.67993,3.17993 z"
         style="font-variant:normal;font-stretch:normal;fill:#999999;font-family:VDS;-inkscape-font-specification:VDS"
         id="path3010-2"
         inkscape:connector-curvature="0" />
      <path
         d="m 222.28523,667.94409 c 0,-1.17349 0.21993,-2.27354 0.65979,-3.30017 0.43986,-1.02659 1.03983,-1.91323 1.79993,-2.65991 0.76009,-0.74664 1.64672,-1.33991 2.65991,-1.77979 1.01318,-0.43983 2.09309,-0.65976 3.23975,-0.65979 1.14663,3e-5 2.23347,0.21996 3.2605,0.65979 1.027,0.43988 1.92035,1.03315 2.68005,1.77979 0.75967,0.74668 1.35293,1.63332 1.77978,2.65991 0.42683,1.02663 0.64024,2.12668 0.64026,3.30017 l 0,5.2002 c -2e-5,1.14665 -0.21343,2.23328 -0.64026,3.25988 -0.42685,1.02662 -1.02011,1.91997 -1.77978,2.68006 -0.7597,0.76009 -1.65305,1.36007 -2.68005,1.79993 -1.02703,0.43986 -2.11387,0.65979 -3.2605,0.65979 -1.14666,0 -2.22657,-0.21993 -3.23975,-0.65979 -1.01319,-0.43986 -1.89982,-1.03984 -2.65991,-1.79993 -0.7601,-0.76009 -1.36007,-1.65344 -1.79993,-2.68006 -0.43986,-1.0266 -0.65979,-2.11323 -0.65979,-3.25988 z m 3.75977,5.2002 c -10e-6,0.63965 0.12003,1.23942 0.36011,1.79931 0.24006,0.55991 0.5668,1.05327 0.98022,1.48011 0.4134,0.42684 0.90006,0.7603 1.45996,1.00036 0.55989,0.24008 1.15966,0.36011 1.79932,0.36011 0.61359,0 1.19383,-0.12003 1.74072,-0.36011 0.54686,-0.24006 1.04023,-0.57352 1.4801,-1.00036 0.43985,-0.42684 0.78653,-0.9202 1.04004,-1.48011 0.25349,-0.55989 0.38024,-1.15966 0.38025,-1.79931 l 0,-5.24048 c -1e-5,-0.66649 -0.12676,-1.2864 -0.38025,-1.85974 -0.25351,-0.57331 -0.58697,-1.06668 -1.00036,-1.48011 -0.41343,-0.41339 -0.90008,-0.7267 -1.45997,-0.93994 -0.5599,-0.21319 -1.16008,-0.3198 -1.80053,-0.31982 -0.6128,2e-5 -1.19264,0.10663 -1.7395,0.31982 -0.54689,0.21324 -1.03354,0.52655 -1.45997,0.93994 -0.42643,0.41343 -0.7664,0.9068 -1.01989,1.48011 -0.25351,0.57334 -0.38026,1.20668 -0.38025,1.90002 z"
         style="font-variant:normal;font-stretch:normal;fill:#999999;font-family:VDS;-inkscape-font-specification:VDS"
         id="path3012-7"
         inkscape:connector-curvature="0" />
      <path
         d="m 246.0865,673.82422 c 0,0.58676 0.12675,1.12671 0.38025,1.61987 0.25349,0.49317 0.59366,0.91309 1.02051,1.25977 0.42683,0.34668 0.91348,0.6134 1.45996,0.80017 0.54646,0.18677 1.11307,0.28015 1.69983,0.28015 0.16031,0 0.4604,0 0.90027,0 0.43985,0 0.90636,-0.0199 1.39953,-0.0598 0.49315,-0.0399 0.95987,-0.08 1.40015,-0.12024 0.44025,-0.0403 0.74014,-0.11373 0.89966,-0.22034 l 0,-13.80005 c -0.74627,-0.15949 -1.50616,-0.27261 -2.27966,-0.33936 -0.77354,-0.0667 -1.56028,-0.10007 -2.36023,-0.10009 -0.58676,2e-5 -1.15337,0.0999 -1.69983,0.29968 -0.54648,0.19981 -1.02642,0.47304 -1.43982,0.8197 -0.41342,0.3467 -0.74688,0.76682 -1.00037,1.26038 -0.2535,0.49358 -0.38025,1.03374 -0.38025,1.62048 z m -3.75976,-6.71997 c -1e-5,-1.14663 0.22664,-2.19339 0.67993,-3.14026 0.45328,-0.94684 1.06669,-1.76024 1.84021,-2.44019 0.77351,-0.67991 1.66035,-1.20644 2.66052,-1.57959 1.00016,-0.3731 2.0467,-0.55967 3.13965,-0.55969 0.6136,2e-5 1.3271,0.0133 2.1405,0.0397 0.81338,0.0265 1.63309,0.13288 2.45911,0.31922 l 0,-5.31983 c -2e-5,-0.50615 0.18675,-0.9393 0.5603,-1.29943 0.37352,-0.36008 0.81338,-0.54014 1.31958,-0.54017 0.53384,3e-5 0.98733,0.1866 1.36047,0.5597 0.37311,0.37315 0.55968,0.81322 0.5597,1.32019 l 0,23.00049 c -2e-5,0.6665 -0.12657,1.2264 -0.37964,1.67968 -0.25311,0.45329 -0.59308,0.83334 -1.0199,1.14014 -0.42685,0.3068 -0.91351,0.54688 -1.45996,0.72021 -0.54648,0.17334 -1.11981,0.29989 -1.71997,0.37964 -0.60019,0.0798 -1.20017,0.12635 -1.79993,0.13977 -0.59978,0.0134 -1.15317,0.0201 -1.66015,0.0201 l -0.36011,0 c -1.09295,0 -2.13949,-0.18677 -3.13965,-0.56031 -1.00017,-0.37353 -1.88701,-0.89355 -2.66052,-1.56006 -0.77352,-0.6665 -1.38693,-1.47969 -1.84021,-2.43957 -0.45329,-0.95988 -0.67994,-2.01314 -0.67993,-3.15979 z"
         style="font-variant:normal;font-stretch:normal;fill:#999999;font-family:VDS;-inkscape-font-specification:VDS"
         id="path3014-6"
         inkscape:connector-curvature="0" />
    </g>
  </g>
</svg>
